# xmcd CD database file
# Copyright (C) 1995-1998 Ti Kan
#
# Track frame offsets:
#	150
#	19495
#	43492
#	59245
#	73712
#	88732
#	97282
#	113930
#	124362
#	141387
#	156312
#	179035
#	194260
#	206935
#	229082
#	244940
#	261190
#	273395
#	294840
#	309387
#
# Disc length: 4318 seconds
#
# Revision: 2
# Processed by: cddbd v1.4PL0 Copyright (c) Steve Scherf et al.
# Submitted via: CDex 1.30Release
#
DISCID=5110dc14
DTITLE=Charlie Musselwhite - Best of the Vanguard Years
DYEAR=1900
DGENRE=Blues
TTITLE0=Chicken Shack
TTITLE1=No More Lonely Nights
TTITLE2=Help Me
TTITLE3=Cha Cha the Blues
TTITLE4=Christo Redemptor
TTITLE5=My Buddy Buddy Friends
TTITLE6=Gone and Left Me
TTITLE7=Juke
TTITLE8=Tennessee Woman
TTITLE9=I Don't Play, I'll Be Your Man Some Day
TTITLE10=Blue Feeling Today
TTITLE11=Everybody Needs Somebody
TTITLE12=Little by Little
TTITLE13=I'm a Stranger
TTITLE14=Rockin' My Boogie
TTITLE15=O Yea!
TTITLE16=So Many Roads, So Many Trains
TTITLE17=Too Hot to Touch
TTITLE18=The Blues Never Die
TTITLE19=After While
EXTD=YEAR: Various ID3G:   0
EXTT0=
EXTT1=
EXTT2=
EXTT3=
EXTT4=
EXTT5=
EXTT6=
EXTT7=
EXTT8=
EXTT9=
EXTT10=
EXTT11=
EXTT12=
EXTT13=
EXTT14=
EXTT15=
EXTT16=
EXTT17=
EXTT18=
EXTT19=
PLAYORDER=
